#!OML:ASF X:\für Bonn\!DataBase\2005_08_11_Bastian_Final\c3d\Bastian.ASF
:FULLY-SPECIFIED
:DEGREES
166
root 8.21078 8.05456 -4.40598 175.267 86.3218 -168.815
lowerback 70.8921 -5.81898 5.45438
upperback 19.4079 4.87638 6.81208
thorax 0.604147 4.27254 3.71963
lowerneck -7.48379 -11.928 -1.03974
upperneck -23.0544 -13.7873 14.8553
head -4.54609 -7.45401 4.92161
rclavicle -7.31528e-014 -3.57812e-014
rhumerus 27.671 0.0325161 -49.675
rradius 28.869
rwrist 10.9894
rhand -49.3809 3.16379
rfingers 7.12502
rthumb -21.9947 -25.6057
lclavicle -7.31528e-014 -3.57812e-014
lhumerus 2.39826 -26.3572 80.9081
lradius 42.8461
lwrist 22.6147
lhand -12.9797 -10.4159
lfingers 7.12502
lthumb 13.1127 19.1518
rfemur -80.2891 -12.3423 20.6112
rtibia 136.27
rfoot -32.5547 -1.05433
rtoes -8.26871
lfemur -58.8643 32.8171 -27.4225
ltibia 148
lfoot -51.1152 -9.05336
ltoes 5.85305
167
root 8.20808 8.06422 -4.4025 175.761 86.2879 -168.398
lowerback 70.9545 -5.82211 5.49782
upperback 19.2935 4.88731 6.78234
thorax 0.482755 4.27277 3.65832
lowerneck -7.46022 -11.879 -1.03062
upperneck -23.2123 -13.7099 14.762
head -4.61423 -7.4102 4.90512
rclavicle -3.18055e-014 -6.99722e-014
rhumerus 27.6346 0.0896022 -49.7477
rradius 28.6724
rwrist 10.8748
rhand -49.5268 3.18322
rfingers 7.12502
rthumb -22.1349 -25.5697
lclavicle -3.18055e-014 -6.99722e-014
lhumerus 2.34551 -26.4165 80.8689
lradius 42.8235
lwrist 22.6924
lhand -12.9688 -10.529
lfingers 7.12502
lthumb 13.1232 19.0381
rfemur -80.3275 -12.3202 20.68
rtibia 136.191
rfoot -32.5243 -1.05328
rtoes -8.06321
lfemur -58.9649 32.5223 -27.5
ltibia 147.901
lfoot -51.1751 -8.85803
ltoes 5.45362
168
root 8.20417 8.077 -4.39927 175.718 86.2591 -168.514
lowerback 71.0175 -5.80759 5.50275
upperback 19.175 4.89026 6.75605
thorax 0.353011 4.2651 3.61824
lowerneck -7.35646 -11.8149 -1.06169
upperneck -23.389 -13.606 14.6895
head -4.69757 -7.35447 4.9073
rclavicle -2.54444e-014 -4.37326e-014
rhumerus 27.6052 0.239609 -49.7827
rradius 28.4979
rwrist 10.6501
rhand -49.6686 3.15314
rfingers 7.12502
rthumb -22.271 -25.5836
lclavicle -2.54444e-014 -4.37326e-014
lhumerus 2.24097 -26.4271 80.8609
lradius 42.8227
lwrist 22.6807
lhand -12.9624 -10.6384
lfingers 7.12502
lthumb 13.1294 18.9282
rfemur -80.3466 -12.2898 20.6983
rtibia 136.087
rfoot -32.4681 -1.07609
rtoes -7.95897
lfemur -59.061 32.1162 -27.6254
ltibia 147.768
lfoot -51.1931 -8.69795
ltoes 5.22096
169
root 8.20015 8.09284 -4.39541 176.063 86.2227 -168.246
lowerback 71.0508 -5.81028 5.53207
upperback 19.09 4.89335 6.73337
thorax 0.261886 4.26215 3.57461
lowerneck -7.28067 -11.766 -1.07235
upperneck -23.6034 -13.5219 14.6109
head -4.7893 -7.30912 4.90476
rclavicle -3.49861e-014 2.8625e-014
rhumerus 27.6204 0.322461 -49.8444
rradius 28.2703
rwrist 10.4506
rhand -49.8915 3.19264
rfingers 7.12502
rthumb -22.485 -25.5183
lclavicle -3.49861e-014 2.8625e-014
lhumerus 2.1992 -26.4343 80.8243
lradius 42.8555
lwrist 22.7859
lhand -12.8964 -10.6381
lfingers 7.12502
lthumb 13.1931 18.9245
rfemur -80.3547 -12.2334 20.746
rtibia 135.969
rfoot -32.4215 -1.08872
rtoes -7.68109
lfemur -59.1257 31.7147 -27.6816
ltibia 147.617
lfoot -51.229 -8.61516
ltoes 5.13081
170
root 8.19594 8.11139 -4.39152 176.064 86.1982 -168.328
lowerback 71.0634 -5.78059 5.50743
upperback 19.043 4.8982 6.72755
thorax 0.205815 4.25648 3.57178
lowerneck -7.29852 -11.7107 -1.09443
upperneck -23.7513 -13.4392 14.5052
head -4.84673 -7.25698 4.88537
rclavicle 1.59028e-014 -2.22639e-014
rhumerus 27.6878 0.332492 -49.9256
rradius 28.0498
rwrist 10.4389
rhand -49.9378 3.074
rfingers 7.12502
rthumb -22.5294 -25.6316
lclavicle 1.59028e-014 -2.22639e-014
lhumerus 2.18397 -26.3087 80.8401
lradius 42.8273
lwrist 22.8
lhand -12.8848 -10.6795
lfingers 7.12502
lthumb 13.2043 18.8823
rfemur -80.3375 -12.1661 20.7645
rtibia 135.823
rfoot -32.3797 -1.13339
rtoes -7.66213
lfemur -59.1797 31.2976 -27.7837
ltibia 147.435
lfoot -51.2906 -8.40277
ltoes 4.70746
171
root 8.19136 8.1329 -4.38653 176.206 86.1592 -168.289
lowerback 71.0602 -5.7511 5.50091
upperback 18.9928 4.91388 6.73664
thorax 0.14386 4.25462 3.57355
lowerneck -7.23347 -11.6569 -1.16666
upperneck -23.985 -13.3397 14.4605
head -4.93599 -7.20006 4.90215
rclavicle -1.04958e-013 -7.31528e-014
rhumerus 27.7643 0.364561 -49.9682
rradius 27.7947
rwrist 10.3901
rhand -49.9599 2.84688
rfingers 7.12502
rthumb -22.5506 -25.8561
lclavicle -1.04958e-013 -7.31528e-014
lhumerus 2.17457 -26.2226 80.8523
lradius 42.8362
lwrist 22.8001
lhand -12.8889 -10.6497
lfingers 7.12502
lthumb 13.2003 18.9123
rfemur -80.3225 -12.0728 20.7986
rtibia 135.653
rfoot -32.3235 -1.18925
rtoes -7.59515
lfemur -59.2746 30.8442 -27.8745
ltibia 147.234
lfoot -51.2769 -8.24698
ltoes 4.51646
